<svg width="30" height="30" fill="none" xmlns="http://www.w3.org/2000/svg"><path d="M12.084 21.915V11.914h-1.186c-.85.453-1.672.958-2.46 1.511v1.303a34.14 34.14 0 012.358-1.457h.023v8.644h1.265zm2.228-2.447c.088 1.2 1.114 2.636 3.193 2.636 2.359 0 3.75-1.998 3.75-5.383 0-3.626-1.464-5.002-3.662-5.002-1.736 0-3.37 1.26-3.37 3.392 0 2.175 1.546 3.318 3.143 3.318 1.399 0 2.307-.705 2.593-1.48h.051c-.007 2.467-.864 4.057-2.447 4.057-1.245 0-1.89-.844-1.969-1.538h-1.282zm5.537-4.344c0 1.305-1.048 2.212-2.22 2.212-1.127 0-2.145-.718-2.145-2.25 0-1.543 1.091-2.268 2.19-2.268 1.187 0 2.175.746 2.175 2.306z" fill="#fff"/><path fill-rule="evenodd" clip-rule="evenodd" d="M1.875 7.5v18.75a1.875 1.875 0 001.875 1.875h22.5c.497 0 .974-.198 1.326-.55a1.875 1.875 0 00.549-1.325V7.5H1.875zM3.75 1.875A3.75 3.75 0 000 5.625V26.25A3.75 3.75 0 003.75 30h22.5a3.75 3.75 0 002.652-1.098A3.75 3.75 0 0030 26.25V5.625a3.75 3.75 0 00-3.75-3.75H3.75z" fill="#fff"/><path fill-rule="evenodd" clip-rule="evenodd" d="M6.563 0A.938.938 0 017.5.938v.937a.938.938 0 11-1.875 0V.937A.938.938 0 016.563 0zm16.875 0a.938.938 0 01.937.938v.937a.938.938 0 01-1.875 0V.937A.938.938 0 0123.438 0z" fill="#fff"/></svg>