<svg fill="none" xmlns="http://www.w3.org/2000/svg"><path d="M34.162 7S14.6 12.002 5.333 25.084c-9.266 13.082 3.73 27.799 3.73 27.799M4.734 26.044h17.31M29.838 53S49.4 47.998 58.667 34.917c9.266-13.082-3.73-27.8-3.73-27.8m4.328 26.838h-17.31" stroke="#FFAF13" stroke-width="3"/><path d="M50.78 4.412c0 2.154-1.771 3.912-3.968 3.912-2.196 0-3.967-1.758-3.967-3.912 0-2.155 1.77-3.912 3.967-3.912s3.967 1.757 3.967 3.912zM40.058 23.823c0 2.155-1.77 3.912-3.967 3.912s-3.967-1.757-3.967-3.912c0-2.154 1.77-3.911 3.967-3.911s3.967 1.757 3.967 3.911zM29.453 39.137c0 2.154-1.77 3.911-3.967 3.911s-3.967-1.757-3.967-3.911c0-2.155 1.77-3.912 3.967-3.912s3.967 1.757 3.967 3.912zm-9.05 14.686c0 2.155-1.77 3.912-3.966 3.912s-3.967-1.757-3.967-3.912c0-2.154 1.77-3.911 3.967-3.911s3.967 1.757 3.967 3.911z" stroke="#FFAF13"/></svg>