<svg width="52" height="48" fill="none" xmlns="http://www.w3.org/2000/svg"><path d="M25.609 16.271c-4.675 0-8.49 3.523-8.49 7.84 0 4.316 3.815 7.839 8.49 7.839 4.674 0 8.49-3.523 8.49-7.84 0-4.316-3.815-7.839-8.49-7.839zm25.462 7.84c0-3.247.032-6.464-.165-9.704-.197-3.764-1.127-7.104-4.108-9.857C43.811 1.792 40.2.94 36.124.757c-3.516-.182-7-.153-10.509-.153-3.516 0-7-.03-10.509.153C11.03.94 7.413 1.798 4.432 4.55 1.445 7.31.522 10.643.324 14.407.127 17.653.16 20.87.16 24.11c0 3.24-.032 6.463.165 9.704.198 3.764 1.127 7.104 4.108 9.856 2.987 2.758 6.598 3.611 10.674 3.793 3.516.183 7 .153 10.51.153 3.515 0 6.998.03 10.508-.153 4.076-.182 7.693-1.04 10.674-3.793 2.987-2.758 3.91-6.092 4.108-9.856.204-3.24.166-6.457.166-9.704zM25.61 36.171c-7.229 0-13.063-5.387-13.063-12.062S18.38 12.05 25.61 12.05 38.67 17.435 38.67 24.11 32.837 36.172 25.61 36.172zm13.597-21.8c-1.688 0-3.05-1.259-3.05-2.817 0-1.559 1.363-2.817 3.05-2.817 1.688 0 3.051 1.258 3.051 2.817 0 .37-.078.736-.231 1.078a2.81 2.81 0 01-.661.915c-.284.261-.62.469-.99.61a3.266 3.266 0 01-1.169.214z" fill="#fff"/></svg>