<?xml version="1.0" encoding="utf-8"?><svg xmlns="http://www.w3.org/2000/svg" xmlns:xlink="http://www.w3.org/1999/xlink"><symbol viewBox="0 0 22.39 21.65" id="arrow" xmlns="http://www.w3.org/2000/svg"><path d="M10.94 21.126a1.5 1.5 0 002.12 0l9.547-9.546a1.5 1.5 0 00-2.122-2.122L12 17.944 3.515 9.458a1.5 1.5 0 00-2.122 2.122l9.546 9.546zM10.5.065v20h3v-20h-3z"/></symbol><symbol viewBox="0 0 30 30" id="calendar" xmlns="http://www.w3.org/2000/svg"><path d="M12.084 21.915V11.914h-1.186c-.85.453-1.672.958-2.46 1.511v1.303a34.14 34.14 0 012.358-1.457h.023v8.644h1.265zm2.228-2.447c.088 1.2 1.114 2.636 3.193 2.636 2.359 0 3.75-1.998 3.75-5.383 0-3.626-1.464-5.002-3.662-5.002-1.736 0-3.37 1.26-3.37 3.392 0 2.175 1.546 3.318 3.143 3.318 1.399 0 2.307-.705 2.593-1.48h.051c-.007 2.467-.864 4.057-2.447 4.057-1.245 0-1.89-.844-1.969-1.538h-1.282zm5.537-4.344c0 1.305-1.048 2.212-2.22 2.212-1.127 0-2.145-.718-2.145-2.25 0-1.543 1.091-2.268 2.19-2.268 1.187 0 2.175.746 2.175 2.306z"/><path fill-rule="evenodd" clip-rule="evenodd" d="M1.875 7.5v18.75a1.875 1.875 0 001.875 1.875h22.5c.497 0 .974-.198 1.326-.55a1.875 1.875 0 00.549-1.325V7.5H1.875zM3.75 1.875A3.75 3.75 0 000 5.625V26.25A3.75 3.75 0 003.75 30h22.5a3.75 3.75 0 002.652-1.098A3.75 3.75 0 0030 26.25V5.625a3.75 3.75 0 00-3.75-3.75H3.75z"/><path fill-rule="evenodd" clip-rule="evenodd" d="M6.563 0A.938.938 0 017.5.938v.937a.938.938 0 11-1.875 0V.937A.938.938 0 016.563 0zm16.875 0a.938.938 0 01.937.938v.937a.938.938 0 01-1.875 0V.937A.938.938 0 0123.438 0z"/></symbol><symbol viewBox="0 0 71.87 57.24" id="circle" xmlns="http://www.w3.org/2000/svg"><path d="M34.162 7S14.6 12.002 5.333 25.084c-9.266 13.082 3.73 27.799 3.73 27.799M4.734 26.044h17.31M29.838 53S49.4 47.998 58.667 34.917c9.266-13.082-3.73-27.8-3.73-27.8m4.328 26.838h-17.31" stroke="#FFAF13" stroke-width="3"/><path d="M50.78 4.412c0 2.154-1.771 3.912-3.968 3.912-2.196 0-3.967-1.758-3.967-3.912 0-2.155 1.77-3.912 3.967-3.912s3.967 1.757 3.967 3.912zM40.058 23.823c0 2.155-1.77 3.912-3.967 3.912s-3.967-1.757-3.967-3.912c0-2.154 1.77-3.911 3.967-3.911s3.967 1.757 3.967 3.911zM29.453 39.137c0 2.154-1.77 3.911-3.967 3.911s-3.967-1.757-3.967-3.911c0-2.155 1.77-3.912 3.967-3.912s3.967 1.757 3.967 3.912zm-9.05 14.686c0 2.155-1.77 3.912-3.966 3.912s-3.967-1.757-3.967-3.912c0-2.154 1.77-3.911 3.967-3.911s3.967 1.757 3.967 3.911z" stroke="#FFAF13"/></symbol><symbol viewBox="0 0 48.91 45" id="facebook" xmlns="http://www.w3.org/2000/svg"><path d="M9.018 0C4.071 0 .087 3.665.087 8.217v28.566C.087 41.335 4.071 45 9.018 45h16.83V27.408H20.79v-6.334h5.056v-5.411c0-4.252 2.988-8.155 9.87-8.155 2.787 0 4.847.246 4.847.246l-.162 5.915s-2.101-.019-4.395-.019c-2.481 0-2.88 1.053-2.88 2.799v4.625H40.6l-.325 6.334h-7.146V45h6.94C45.017 45 49 41.335 49 36.783V8.217C49 3.665 45.016 0 40.069 0H9.019z"/></symbol><symbol viewBox="0 0 50.98 47.07" id="insta" xmlns="http://www.w3.org/2000/svg"><path d="M25.609 16.271c-4.675 0-8.49 3.523-8.49 7.84 0 4.316 3.815 7.839 8.49 7.839 4.674 0 8.49-3.523 8.49-7.84 0-4.316-3.815-7.839-8.49-7.839zm25.462 7.84c0-3.247.032-6.464-.165-9.704-.197-3.764-1.127-7.104-4.108-9.857C43.811 1.792 40.2.94 36.124.757c-3.516-.182-7-.153-10.509-.153-3.516 0-7-.03-10.509.153C11.03.94 7.413 1.798 4.432 4.55 1.445 7.31.522 10.643.324 14.407.127 17.653.16 20.87.16 24.11c0 3.24-.032 6.463.165 9.704.198 3.764 1.127 7.104 4.108 9.856 2.987 2.758 6.598 3.611 10.674 3.793 3.516.183 7 .153 10.51.153 3.515 0 6.998.03 10.508-.153 4.076-.182 7.693-1.04 10.674-3.793 2.987-2.758 3.91-6.092 4.108-9.856.204-3.24.166-6.457.166-9.704zM25.61 36.171c-7.229 0-13.063-5.387-13.063-12.062S18.38 12.05 25.61 12.05s13.06 5.385 13.06 12.06-5.833 12.062-13.06 12.062zm13.597-21.8c-1.688 0-3.05-1.259-3.05-2.817 0-1.559 1.363-2.817 3.05-2.817 1.688 0 3.051 1.258 3.051 2.817 0 .37-.078.736-.231 1.078a2.81 2.81 0 01-.661.915c-.284.261-.62.469-.99.61a3.266 3.266 0 01-1.169.214z"/></symbol><symbol viewBox="0 0 48.91 45" id="vk" xmlns="http://www.w3.org/2000/svg"><path d="M32.66 0H17.644C3.94 0 .696 2.985.696 15.592v13.815C.696 42.016 3.94 45 17.644 45H32.66c13.704 0 16.949-2.985 16.949-15.592V15.591C49.609 2.986 46.329 0 32.66 0zm7.525 32.106H36.63c-1.346 0-1.761-.985-4.178-3.238-2.106-1.875-3.037-2.129-3.555-2.129-.725 0-.933.192-.933 1.112v2.953c0 .795-.275 1.272-2.554 1.272-3.762 0-7.94-2.097-10.873-6.004C10.12 20.357 8.91 16.069 8.91 15.18c0-.476.208-.92 1.209-.92h3.554c.897 0 1.243.38 1.59 1.269 1.758 4.668 4.693 8.765 5.902 8.765.448 0 .656-.19.656-1.237v-4.83c-.139-2.224-1.416-2.413-1.416-3.206 0-.383.346-.764.896-.764h5.593c.76 0 1.035.381 1.035 1.206v6.512c0 .698.347.953.552.953.449 0 .83-.255 1.657-1.017 2.556-2.636 4.384-6.701 4.384-6.701.243-.476.656-.92 1.555-.92h3.555c1.07 0 1.312.506 1.07 1.205-.449 1.907-4.798 7.558-4.798 7.558-.38.572-.518.825 0 1.463.379.476 1.622 1.46 2.452 2.349 1.518 1.588 2.69 2.921 3.002 3.844.346.919-.173 1.395-1.174 1.395l.002.002z"/></symbol></svg>