<svg width="50" height="45" fill="none" xmlns="http://www.w3.org/2000/svg"><path d="M32.66 0H17.644C3.94 0 .696 2.985.696 15.592v13.815C.696 42.016 3.94 45 17.644 45H32.66c13.704 0 16.949-2.985 16.949-15.592V15.591C49.609 2.986 46.329 0 32.66 0zm7.525 32.106H36.63c-1.346 0-1.761-.985-4.178-3.238-2.106-1.875-3.037-2.129-3.555-2.129-.725 0-.933.192-.933 1.112v2.953c0 .795-.275 1.272-2.554 1.272-3.762 0-7.94-2.097-10.873-6.004C10.12 20.357 8.91 16.069 8.91 15.18c0-.476.208-.92 1.209-.92h3.554c.897 0 1.243.38 1.59 1.269 1.758 4.668 4.693 8.765 5.902 8.765.448 0 .656-.19.656-1.237v-4.83c-.139-2.224-1.416-2.413-1.416-3.206 0-.383.346-.764.896-.764h5.593c.76 0 1.035.381 1.035 1.206v6.512c0 .698.347.953.552.953.449 0 .83-.255 1.657-1.017 2.556-2.636 4.384-6.701 4.384-6.701.243-.476.656-.92 1.555-.92h3.555c1.07 0 1.312.506 1.07 1.205-.449 1.907-4.798 7.558-4.798 7.558-.38.572-.518.825 0 1.463.379.476 1.622 1.46 2.452 2.349 1.518 1.588 2.69 2.921 3.002 3.844.346.919-.173 1.395-1.174 1.395l.002.002z" fill="#fff"/></svg>