<svg width="204" height="49" viewBox="0 0 204 49" fill="none" xmlns="http://www.w3.org/2000/svg">
<path fill-rule="evenodd" clip-rule="evenodd" d="M20.1743 34.8018C22.0135 32.3441 22.9331 29.1051 22.9331 25.085V24.6699C22.9331 20.4056 22.0054 17.0771 20.1499 14.6846C18.3107 12.292 15.8042 11.0957 12.6304 11.0957C9.35889 11.0957 6.80355 12.235 4.96436 14.5137L4.74463 11.584H0.618652V48.1562H5.13525V35.4365C6.97445 37.471 9.49723 38.4883 12.7036 38.4883C15.8449 38.4883 18.3351 37.2594 20.1743 34.8018ZM16.5122 17.5166C17.7817 19.2419 18.4165 21.5938 18.4165 24.5723C18.4165 27.9577 17.7736 30.513 16.4878 32.2383C15.2183 33.9473 13.5011 34.8018 11.3364 34.8018C8.55322 34.8018 6.48617 33.5973 5.13525 31.1885V18.5664C6.50244 16.1413 8.55322 14.9287 11.2876 14.9287C13.5011 14.9287 15.2427 15.7913 16.5122 17.5166ZM41.0239 11.0957C37.8175 11.0957 35.2134 12.3245 33.2114 14.7822V0.5H28.6948V38H33.2114V19.1768C33.8299 17.9072 34.6925 16.8818 35.7993 16.1006C36.9061 15.3193 38.1919 14.9287 39.6567 14.9287C41.4634 14.9287 42.7899 15.3844 43.6362 16.2959C44.4989 17.2074 44.9383 18.6152 44.9546 20.5195V38H49.4712V20.5439C49.4224 14.2451 46.6066 11.0957 41.0239 11.0957ZM56.5513 17.5654C55.5422 19.6325 55.0376 21.96 55.0376 24.5479V24.8652C55.0376 28.9668 56.1444 32.2627 58.3579 34.7529C60.5877 37.2432 63.493 38.4883 67.0737 38.4883C69.45 38.4883 71.5496 37.9186 73.3726 36.7793C75.2118 35.64 76.6196 34.0531 77.5962 32.0186C78.589 29.9678 79.0854 27.6566 79.0854 25.085V24.7676C79.0854 20.6335 77.9705 17.3213 75.7407 14.8311C73.5272 12.3408 70.6219 11.0957 67.0249 11.0957C64.6974 11.0957 62.6222 11.6572 60.7993 12.7803C58.9927 13.9033 57.5767 15.4984 56.5513 17.5654ZM61.605 32.1406C60.2541 30.3665 59.5786 28.0146 59.5786 25.085C59.5786 21.7809 60.2622 19.2419 61.6294 17.4678C62.9966 15.6937 64.7951 14.8066 67.0249 14.8066C69.3036 14.8066 71.1265 15.71 72.4937 17.5166C73.8771 19.307 74.5688 21.6507 74.5688 24.5479C74.5688 27.7868 73.8934 30.3096 72.5425 32.1162C71.1916 33.9066 69.3687 34.8018 67.0737 34.8018C64.7951 34.8018 62.9722 33.9147 61.605 32.1406ZM123.408 20.9043L123.261 17.584H118.989V44H123.505V25.1768C124.124 23.9072 124.986 22.8818 126.093 22.1006C127.2 21.3193 128.486 20.9287 129.95 20.9287C131.757 20.9287 133.084 21.3844 133.93 22.2959C134.793 23.2074 135.232 24.6152 135.248 26.5195V44H139.765V26.5439C139.716 20.2451 136.9 17.0957 131.318 17.0957C128.062 17.0957 125.426 18.3652 123.408 20.9043ZM146.967 44H151.484V17.584H146.967V44ZM147.26 8.72168C146.821 9.22624 146.601 9.84473 146.601 10.5771C146.601 11.3096 146.821 11.9199 147.26 12.4082C147.716 12.8965 148.383 13.1406 149.262 13.1406C150.141 13.1406 150.808 12.8965 151.264 12.4082C151.72 11.9199 151.948 11.3096 151.948 10.5771C151.948 9.84473 151.72 9.22624 151.264 8.72168C150.808 8.21712 150.141 7.96484 149.262 7.96484C148.383 7.96484 147.716 8.21712 147.26 8.72168ZM173.456 17.584L167.597 27.2275L161.811 17.584H156.586L165.229 30.6455L156.318 44H161.567L167.67 34.1123L173.774 44H178.998L170.087 30.6455L178.73 17.584H173.456ZM198.261 17.584L192.402 27.2275L186.616 17.584H181.391L190.033 30.6455L181.122 44H186.371L192.475 34.1123L198.578 44H203.803L194.892 30.6455L203.534 17.584H198.261ZM99.5663 10.5478C99.5667 10.5477 99.5672 10.5476 99.942 12C100.317 13.4524 100.317 13.4523 100.317 13.4523L100.315 13.4529L100.297 13.4576C100.28 13.4621 100.253 13.4694 100.217 13.4795C100.144 13.4997 100.032 13.5312 99.886 13.5745C99.594 13.661 99.1652 13.7942 98.6319 13.9774C97.5638 14.3442 96.0849 14.9086 94.4511 15.6953C91.7712 16.9857 88.7762 18.826 86.4671 21.2924H93.1391V24.2924H84.2777C82.8918 27.0737 83.309 29.9436 84.2503 32.3589C84.7865 33.7345 85.4764 34.91 86.037 35.745C86.3159 36.1604 86.5592 36.486 86.7294 36.7041C86.8144 36.813 86.881 36.8947 86.9243 36.9469L86.9493 36.9768L86.9711 37.0027L86.98 37.0131C86.9797 37.0127 86.9794 37.0123 85.8504 38C84.7215 38.9877 84.7211 38.9872 84.7206 38.9867L84.7196 38.9855L84.7171 38.9826L84.71 38.9745L84.6882 38.949C84.6703 38.928 84.6458 38.899 84.6152 38.8622C84.5542 38.7886 84.4691 38.6839 84.3647 38.5503C84.1563 38.2833 83.8702 37.8995 83.5464 37.4172C82.9016 36.4569 82.0927 35.0842 81.4551 33.4483C80.1833 30.1851 79.5278 25.6622 82.529 21.3857C85.345 17.3732 89.6584 14.6734 93.1495 12.9923C94.9117 12.1438 96.5036 11.5363 97.6574 11.14C98.235 10.9417 98.7049 10.7955 99.0338 10.6981C99.1983 10.6493 99.3278 10.6127 99.418 10.5878C99.4631 10.5753 99.4985 10.5658 99.5235 10.5591L99.5532 10.5512L99.5622 10.5489L99.5652 10.5481L99.5663 10.5478ZM97.8899 45.4522C97.8894 45.4523 97.889 45.4524 97.5142 44C97.1393 42.5476 97.139 42.5477 97.1387 42.5477L97.1414 42.5471L97.159 42.5424C97.1758 42.5379 97.2028 42.5306 97.2394 42.5205C97.3126 42.5003 97.4242 42.4688 97.5702 42.4255C97.8622 42.339 98.291 42.2058 98.8243 42.0226C99.8924 41.6558 101.371 41.0914 103.005 40.3047C105.685 39.0143 108.68 37.174 110.989 34.7076H104.317V31.7076H113.178C114.564 28.9263 114.147 26.0564 113.206 23.6411C112.67 22.2655 111.98 21.09 111.419 20.255C111.14 19.8396 110.897 19.514 110.727 19.2959C110.642 19.187 110.575 19.1053 110.532 19.0531C110.51 19.027 110.494 19.0083 110.485 18.9973L110.476 18.9869C110.476 18.9873 110.477 18.9877 111.606 18C112.735 17.0123 112.735 17.0128 112.736 17.0133L112.737 17.0145L112.739 17.0174L112.746 17.0255L112.768 17.051C112.786 17.072 112.81 17.101 112.841 17.1378C112.902 17.2114 112.987 17.3161 113.091 17.4497C113.3 17.7167 113.586 18.1005 113.91 18.5828C114.555 19.5431 115.363 20.9158 116.001 22.5517C117.273 25.8149 117.928 30.3378 114.927 34.6143C112.111 38.6268 107.798 41.3266 104.307 43.0077C102.544 43.8562 100.953 44.4637 99.7988 44.86C99.2211 45.0583 98.7513 45.2045 98.4223 45.3019C98.2578 45.3507 98.1284 45.3873 98.0381 45.4122C97.993 45.4247 97.9577 45.4342 97.9327 45.4409L97.9029 45.4488L97.894 45.4511L97.891 45.4519L97.8899 45.4522ZM107.044 17C107.88 17 108.552 16.3255 108.552 15.5C108.552 14.6745 107.88 14 107.044 14C106.208 14 105.536 14.6745 105.536 15.5C105.536 16.3255 106.208 17 107.044 17ZM107.044 18C108.429 18 109.552 16.8807 109.552 15.5C109.552 14.1193 108.429 13 107.044 13C105.659 13 104.536 14.1193 104.536 15.5C104.536 16.8807 105.659 18 107.044 18ZM102.533 26.5C102.533 27.3255 101.861 28 101.025 28C100.189 28 99.5173 27.3255 99.5173 26.5C99.5173 25.6745 100.189 25 101.025 25C101.861 25 102.533 25.6745 102.533 26.5ZM103.533 26.5C103.533 27.8807 102.41 29 101.025 29C99.6401 29 98.5173 27.8807 98.5173 26.5C98.5173 25.1193 99.6401 24 101.025 24C102.41 24 103.533 25.1193 103.533 26.5ZM95.071 36.6774C95.9068 36.6774 96.5789 36.0029 96.5789 35.1774C96.5789 34.352 95.9068 33.6774 95.071 33.6774C94.2353 33.6774 93.5632 34.352 93.5632 35.1774C93.5632 36.0029 94.2353 36.6774 95.071 36.6774ZM95.071 37.6774C96.4561 37.6774 97.5789 36.5581 97.5789 35.1774C97.5789 33.7967 96.4561 32.6774 95.071 32.6774C93.686 32.6774 92.5632 33.7967 92.5632 35.1774C92.5632 36.5581 93.686 37.6774 95.071 37.6774ZM91.4985 43.5C91.4985 44.3255 90.8264 45 89.9907 45C89.1549 45 88.4828 44.3255 88.4828 43.5C88.4828 42.6745 89.1549 42 89.9907 42C90.8264 42 91.4985 42.6745 91.4985 43.5ZM92.4985 43.5C92.4985 44.8807 91.3757 46 89.9907 46C88.6056 46 87.4828 44.8807 87.4828 43.5C87.4828 42.1193 88.6056 41 89.9907 41C91.3757 41 92.4985 42.1193 92.4985 43.5Z" fill="#FFAF13"/>
</svg>
